<?xml version="1.0" encoding="UTF-8"?>
<!DOCTYPE svg PUBLIC "-//W3C//DTD SVG 1.1//EN" "http://www.w3.org/Graphics/SVG/1.1/DTD/svg11.dtd">
<!-- Creator: CorelDRAW X7 -->
<svg xmlns="http://www.w3.org/2000/svg" xml:space="preserve" width="8.5in" height="11in" version="1.1" style="shape-rendering:geometricPrecision; text-rendering:geometricPrecision; image-rendering:optimizeQuality; fill-rule:evenodd; clip-rule:evenodd"
viewBox="0 0 8500 11000"
 xmlns:xlink="http://www.w3.org/1999/xlink">
 <defs>
  <style type="text/css">
   <![CDATA[
    .fil0 {fill:#00D8FE}
    .fil1 {fill:#222222}
   ]]>
  </style>
 </defs>
 <g id="Layer_x0020_1">
  <metadata id="CorelCorpID_0Corel-Layer"/>
  <g id="_344977256">
   <path class="fil0" d="M4005 7425c-220,196 -300,305 -577,464 -1457,837 -1108,-744 -1032,-1386 190,29 366,69 561,95 462,63 388,-40 635,303l276 350c89,83 91,67 137,174zm473 -3c51,-113 163,-216 261,-342 454,-585 196,-399 794,-494 176,-28 363,-68 527,-95 116,432 226,1500 -223,1622 -333,90 -857,-237 -1103,-443 -145,-120 -197,-142 -256,-248zm-208 -232c-102,-51 -400,-385 -442,-514l811 -10c-42,142 -221,317 -369,524zm1048 -890c35,-116 49,-123 114,-229l298 -509c80,143 206,450 227,612 -180,90 -431,105 -639,126zm-2606 -726c34,30 24,18 59,61l176 317c55,97 162,243 194,358l-660 -101 231 -635zm3587 522c-40,-46 -366,-844 -371,-901 -4,-55 285,-782 342,-923 454,112 1279,484 1296,895 17,404 -819,835 -1267,929zm-4095 22c-496,-89 -1337,-525 -1321,-949 17,-434 921,-811 1315,-902 50,182 338,849 334,926 -7,121 -283,673 -328,925zm1354 227c-84,-163 -601,-922 -645,-1126 -23,-106 84,-258 149,-371 131,-227 296,-557 444,-735 161,-195 780,-110 1057,-102 336,9 322,-56 657,535 405,715 463,545 -114,1477 -259,417 -243,342 -821,342l-727 -20zm1847 -2090c-74,-112 -52,-57 -90,-185l643 111 -260 625 -293 -551zm-2264 -177c-36,88 -338,646 -430,722l-211 -623 641 -99zm670 -382c145,-244 322,-381 405,-504l430 505 -835 -1zm641 -762c131,-82 164,-146 285,-232l304 -217c1306,-764 1140,428 1015,1395l-982 -150c-43,-40 -3,1 -54,-60l-568 -736zm-2049 953c-58,-441 -297,-1564 257,-1633 284,-35 575,127 773,255 170,109 494,335 575,476l-438 492c-52,70 -60,115 -126,188 -93,102 -719,153 -1041,222zm3959 65c37,-430 149,-708 86,-1190 -163,-1253 -1251,-848 -1887,-305 -135,115 -205,200 -349,276 -377,-342 -1128,-973 -1726,-752 -660,244 -491,1270 -381,1992 -302,53 -744,263 -971,407 -1336,850 17,1866 969,2032 -68,432 -166,740 -99,1218 245,1756 2198,123 2224,27 260,158 1084,1024 1752,732 596,-261 559,-1280 384,-1989 271,-49 787,-303 959,-419 208,-141 566,-451 560,-812 -13,-775 -1352,-1111 -1521,-1217z"/>
   <path class="fil1" d="M4014 4570c396,-142 725,112 825,388 136,379 -111,734 -379,832 -810,297 -1286,-921 -446,-1220zm-456 1775l727 20c578,0 562,75 821,-342 577,-932 519,-762 114,-1477 -335,-591 -321,-526 -657,-535 -277,-8 -896,-93 -1057,102 -148,178 -313,508 -444,735 -65,113 -172,265 -149,371 44,204 561,963 645,1126z"/>
   <path class="fil1" d="M2204 6118c45,-252 321,-804 328,-925 4,-77 -284,-744 -334,-926 -394,91 -1298,468 -1315,902 -16,424 825,860 1321,949z"/>
   <path class="fil1" d="M4478 7422c59,106 111,128 256,248 246,206 770,533 1103,443 449,-122 339,-1190 223,-1622 -164,27 -351,67 -527,95 -598,95 -340,-91 -794,494 -98,126 -210,229 -261,342z"/>
   <path class="fil1" d="M4005 7425c-46,-107 -48,-91 -137,-174l-276 -350c-247,-343 -173,-240 -635,-303 -195,-26 -371,-66 -561,-95 -76,642 -425,2223 1032,1386 277,-159 357,-268 577,-464z"/>
   <path class="fil1" d="M2403 3887c322,-69 948,-120 1041,-222 66,-73 74,-118 126,-188l438 -492c-81,-141 -405,-367 -575,-476 -198,-128 -489,-290 -773,-255 -554,69 -315,1192 -257,1633z"/>
   <path class="fil1" d="M4452 2934l568 736c51,61 11,20 54,60l982 150c125,-967 291,-2159 -1015,-1395l-304 217c-121,86 -154,150 -285,232z"/>
   <path class="fil1" d="M6299 6096c448,-94 1284,-525 1267,-929 -17,-411 -842,-783 -1296,-895 -57,141 -346,868 -342,923 5,57 331,855 371,901z"/>
   <path class="fil0" d="M4014 4570c-840,299 -364,1517 446,1220 268,-98 515,-453 379,-832 -100,-276 -429,-530 -825,-388z"/>
   <path class="fil1" d="M5318 6300c208,-21 459,-36 639,-126 -21,-162 -147,-469 -227,-612l-298 509c-65,106 -79,113 -114,229z"/>
   <path class="fil1" d="M4270 7190c148,-207 327,-382 369,-524l-811 10c42,129 340,463 442,514z"/>
   <path class="fil1" d="M2481 6209l660 101c-32,-115 -139,-261 -194,-358l-176 -317c-35,-43 -25,-31 -59,-61l-231 635z"/>
   <path class="fil1" d="M2500 4177l211 623c92,-76 394,-634 430,-722l-641 99z"/>
   <path class="fil1" d="M5698 4806l260 -625 -643 -111c38,128 16,73 90,185l293 551z"/>
   <path class="fil1" d="M3811 3696l835 1 -430 -505c-83,123 -260,260 -405,504z"/>
  </g>
 </g>
</svg>
